<?xml version="1.0" encoding="UTF-8"?>
<svg width="512px" height="512px" viewBox="0 0 512 512" version="1.1" xmlns="http://www.w3.org/2000/svg" xmlns:xlink="http://www.w3.org/1999/xlink">
    <title>512</title>
    <g id="512" stroke="none" stroke-width="1" fill="none" fill-rule="evenodd">
        <g id="LogoFinal" transform="translate(0.000000, 16.000000)" fill-rule="nonzero">
            <path d="M83.8236,181.0542 C144.5598,74.8148 174.928,21.6952 216.156,6.924 C241.924,-2.30798 270.076,-2.30798 295.844,6.924 C337.072,21.6952 367.44,74.8148 428.176,181.0542 C488.524,286.612 518.696,339.392 510.748,382.498 C505.778,409.444 491.724,433.848 470.948,451.6 C437.714,480 377.142,480 256.000001,480 C134.8572,480 74.2858,480 41.052,451.6 C20.2766,433.848 6.2216,409.444 1.252324,382.498 C-6.69692,339.392 23.4766,286.612 83.8236,181.0542 Z" id="Path" fill="#FA5B30"></path>
            <path d="M340.824,334.606 C311.482,381.642 296.81,405.162 277.336,412.25 C263.594,417.25 248.406,417.25 234.664,412.25 C215.19,405.162 200.518,381.642 171.1758,334.606 C140.5954,285.584 125.3054,261.074 128.3902,240.948 C130.5646,226.766 138.2306,213.878 149.8726,204.834 C166.3914,192 196.2608,192 256,192 C315.74,192 345.608,192 362.128,204.834 C373.77,213.878 381.436,226.766 383.61,240.948 C386.694,261.074 371.404,285.584 340.824,334.606 Z" id="Path" fill="#FFFFFF"></path>
        </g>
    </g>
</svg>